/vscmnt/brussel_pixiu_data/_data_brussel/112/vsc11236/PredSimResults/SUBJ07opt3D/weighted-expIG/worker_04.mot
version=1
nRows=11
nColumns=50
inDegrees=yes
endheader
                time	         pelvis_tilt	         pelvis_list	     pelvis_rotation	           pelvis_tx	           pelvis_ty	           pelvis_tz	       hip_flexion_r	     hip_adduction_r	      hip_rotation_r	        knee_angle_r	       ankle_angle_r	         mtp_angle_r	       hip_flexion_l	     hip_adduction_l	      hip_rotation_l	        knee_angle_l	       ankle_angle_l	         mtp_angle_l	    lumbar_extension	      lumbar_bending	     lumbar_rotation	 ercspn_r/activation	 intobl_r/activation	 extobl_r/activation	    abd_r/activation	    add_r/activation	hamstrings_r/activation	bifemsh_r/activation	glut_max_r/activation	iliopsoas_r/activation	rect_fem_r/activation	  vasti_r/activation	gastroc_r/activation	 soleus_r/activation	tib_ant_r/activation	 ercspn_l/activation	 intobl_l/activation	 extobl_l/activation	    abd_l/activation	    add_l/activation	hamstrings_l/activation	bifemsh_l/activation	glut_max_l/activation	iliopsoas_l/activation	rect_fem_l/activation	  vasti_l/activation	gastroc_l/activation	 soleus_l/activation	tib_ant_l/activation	
          1.66816667	         -4.24123866	          0.17753268	         -9.50786431	          2.03516334	          0.84641664	          0.01452732	        -14.41387499	         -0.05294900	          5.27120396	         -9.37091970	          8.32665548	         29.45513565	         31.32037239	         -2.80050473	         -6.03203510	         -9.08684221	          2.72773112	          0.27262384	        -12.03423699	          1.24142491	          1.73415892	          0.11489663	          0.01000011	          0.01000013	          0.03221156	          0.06322971	          0.01711789	          0.17049455	          0.01974244	          0.45574670	          0.01184547	          0.01000076	          0.17394707	          0.32899566	          0.01665525	          0.12704202	          0.12035324	          0.01000039	          0.01473486	          0.19060540	          0.08843887	          0.10714601	          0.11831935	          0.04619873	          0.01000168	          0.01000033	          0.01000047	          0.01000031	          0.42984560	
          1.67928778	         -4.23433864	          0.11700131	         -9.54832869	          2.05169148	          0.84465082	          0.01399354	        -14.88569376	         -0.14273419	          4.97275354	        -10.53436455	          7.37639637	         31.09553584	         31.28055040	         -2.61891552	         -5.72775527	        -10.99071101	          2.37779890	          0.24883055	        -11.85865801	          0.89331565	          1.93281103	          0.14015223	          0.01000006	          0.01000035	          0.02717469	          0.10069867	          0.01445156	          0.15602837	          0.01665537	          0.45113188	          0.01000062	          0.01000012	          0.14674723	          0.30804812	          0.01405090	          0.10717703	          0.12533457	          0.01000015	          0.01243086	          0.18354687	          0.07726156	          0.09489413	          0.18273255	          0.03897472	          0.01000037	          0.01000012	          0.01360773	          0.01185352	          0.47646464	
          1.69040889	         -4.22213189	          0.04446208	         -9.53300529	          2.06835863	          0.84310891	          0.01339470	        -15.14315186	         -0.19233977	          4.62372793	        -12.10882396	          6.30957829	         32.70528969	         31.08323560	         -2.47110286	         -5.38703077	        -12.66687575	          1.99590946	          0.23983189	        -11.68334748	          0.55360442	          2.11881197	          0.16164637	          0.01000005	          0.01000019	          0.02292543	          0.09198629	          0.01242781	          0.13329195	          0.01405102	          0.39163334	          0.01000098	          0.01000010	          0.12380058	          0.28431364	          0.01185379	          0.13687013	          0.10573626	          0.01000014	          0.08467781	          0.19033806	          0.06817136	          0.09201693	          0.19547391	          0.03288031	          0.01000017	          0.01000003	          0.01147995	          0.01000004	          0.55088229	
          1.70153000	         -4.20617636	         -0.04621101	         -9.46289185	          2.08496349	          0.84193148	          0.01270757	        -15.13518871	         -0.19708340	          4.22966778	        -14.14197459	          5.07968275	         34.22101681	         30.81817002	         -2.33644537	         -5.11038512	        -14.21692013	          1.61687672	          0.21879436	        -11.52823660	          0.23038926	          2.28896188	          0.19927503	          0.01000005	          0.01000018	          0.01934062	          0.08642707	          0.01408459	          0.11299281	          0.01185391	          0.33039448	          0.01000073	          0.01000006	          0.10444206	          0.24773167	          0.01000024	          0.15187380	          0.08920246	          0.01000012	          0.14321661	          0.19453934	          0.05751312	          0.07762859	          0.22388041	          0.02773888	          0.01000029	          0.01000012	          0.01000024	          0.01000010	          0.56858316	
          1.71265111	         -4.18721808	         -0.14267638	         -9.34358025	          2.10130077	          0.84127580	          0.01194463	        -14.81222451	         -0.17075238	          3.80105375	        -16.67928674	          3.69008092	         35.45883025	         30.58990369	         -2.20887031	         -4.89015814	        -15.85539644	          1.54664883	          0.19515832	        -11.40787776	         -0.09073976	          2.43940492	          0.24053919	          0.01000004	          0.01000021	          0.01631637	          0.10598633	          0.01495236	          0.10174983	          0.01000038	          0.27873124	          0.01000037	          0.01000003	          0.08811060	          0.20899425	          0.01000006	          0.15906191	          0.07525402	          0.01000009	          0.18373197	          0.20922138	          0.05025326	          0.06549008	          0.24412673	          0.02340140	          0.01000032	          0.03539888	          0.01000023	          0.01000005	          0.56304210	
          1.72377222	         -4.16693715	         -0.23885986	         -9.17725900	          2.11722720	          0.84128203	          0.01111925	        -14.13103143	         -0.12016672	          3.34509959	        -19.76222699	          2.17032429	         36.13691360	         30.41479712	         -2.08242023	         -4.71836319	        -17.58680938	          1.82948788	          0.17731669	        -11.32898469	         -0.41418044	          2.56731884	          0.26758244	          0.01000005	          0.01000019	          0.01376501	          0.13882802	          0.01582824	          0.08584268	          0.01000009	          0.23514647	          0.01000033	          0.01000003	          0.07433288	          0.17631412	          0.01000006	          0.16854024	          0.06348666	          0.01000009	          0.20388874	          0.22550578	          0.04613786	          0.05524969	          0.25064872	          0.01974218	          0.01000029	          0.07293809	          0.01000015	          0.01000004	          0.49776443	
          1.73489334	         -4.14726407	         -0.33588746	         -8.96604309	          2.13272959	          0.84199330	          0.01025384	        -13.08233823	         -0.04804436	          2.87824097	        -23.37343029	          0.48130986	         36.07716758	         30.21743680	         -1.95016394	         -4.57206281	        -19.26179874	          2.45876237	          0.19528050	        -11.28269702	         -0.73584877	          2.67164769	          0.28750115	          0.01000006	          0.01000015	          0.01161262	          0.16873778	          0.01521800	          0.07242428	          0.01000011	          0.19837697	          0.01000036	          0.01000002	          0.06270955	          0.14874412	          0.01000005	          0.15179116	          0.05355935	          0.01000010	          0.20964069	          0.23164717	          0.04551958	          0.04661062	          0.23605729	          0.01665515	          0.01000042	          0.13222326	          0.01000031	          0.01000009	          0.41992983	
          1.74601445	         -4.13159383	         -0.43416887	         -8.71125002	          2.14782854	          0.84339842	          0.00935414	        -11.68528078	          0.04153173	          2.43559402	        -27.40447265	         -1.53896417	         35.30433980	         29.88618807	         -1.79808796	         -4.41233187	        -20.65746713	          3.32756833	          0.29554427	        -11.25962863	         -1.04866850	          2.75397384	          0.28403460	          0.01000006	          0.01000018	          0.01000004	          0.17799251	          0.01284418	          0.06507833	          0.01000006	          0.16735707	          0.01000028	          0.01000001	          0.05290375	          0.12548521	          0.01000003	          0.12805587	          0.04518436	          0.01000010	          0.21163133	          0.22349722	          0.05301215	          0.03932247	          0.20035391	          0.01405083	          0.01000035	          0.17013196	          0.01000041	          0.01000010	          0.35426608	
          1.75713556	         -4.12320291	         -0.53448921	         -8.41283199	          2.16252580	          0.84541135	          0.00842169	         -9.98012279	          0.15036124	          2.05598853	        -31.70711676	         -3.96139173	         33.77521153	         29.36126280	         -1.61782224	         -4.20165279	        -21.63018345	          4.21460708	          0.47488536	        -11.25787966	         -1.34673912	          2.81443645	          0.27532021	          0.01000011	          0.01000016	          0.01000021	          0.18425052	          0.02784575	          0.05490328	          0.01135022	          0.14118770	          0.01000024	          0.01000001	          0.04463128	          0.10586326	          0.02528468	          0.10803198	          0.03811895	          0.01000014	          0.20724837	          0.20451772	          0.06603153	          0.03317398	          0.16902494	          0.01185377	          0.01000020	          0.20127159	          0.01000033	          0.01000006	          0.29887024	
          1.76825667	         -4.12368859	         -0.63631050	         -8.07325901	          2.17681103	          0.84787995	          0.00748158	         -8.02607942	          0.29058214	          1.76841030	        -36.16194262	         -6.41580819	         31.02736421	         28.63500521	         -1.41438031	         -3.93745729	        -22.14591542	          5.00011236	          0.72343386	        -11.27857006	         -1.62928592	          2.85240464	          0.28439279	          0.03481423	          0.01000132	          0.01357076	          0.16614329	          0.02352623	          0.04631875	          0.01665495	          0.11911040	          0.01000048	          0.01000003	          0.03765236	          0.08930957	          0.19719646	          0.09113919	          0.03215836	          0.01000013	          0.21723285	          0.17253779	          0.07553737	          0.02798681	          0.14259486	          0.01000030	          0.01000015	          0.22144799	          0.01000026	          0.01000006	          0.25844062	
          1.77937778	         -4.13268668	         -0.73643814	         -7.69623598	          2.19066015	          0.85060022	          0.00656476	         -5.91263375	          0.48587160	          1.56309485	        -40.66296995	         -7.90124716	         27.09481521	         27.74518206	         -1.19663698	         -3.62648541	        -22.27574781	          5.69542700	          1.00992951	        -11.32455811	         -1.89530181	          2.86282213	          0.27559769	          0.03793129	          0.01405187	          0.01144896	          0.14016532	          0.01986361	          0.05162134	          0.01405069	          0.10048530	          0.01000028	          0.01000002	          0.03176524	          0.07534436	          0.20894726	          0.07688791	          0.02712981	          0.01000015	          0.20847776	          0.14555871	          0.07998215	          0.02361068	          0.12029769	          0.01000011	          0.01000014	          0.21885239	          0.01000028	          0.01000007	          0.23061415	
